<svg width="678" height="237" viewBox="0 0 678 237" fill="none"
    xmlns="http://www.w3.org/2000/svg">
    <path fill-rule="evenodd" clip-rule="evenodd" d="M471.548 46.6001C479.1 51.5729 486.683 56.8336 495.373 59.3309C504.063 61.8283 514.276 61.0645 520.968 54.9842C547.973 30.4473 591.462 26.3446 622.579 45.3985C653.696 64.4523 669.813 105.053 660.235 140.261C650.657 175.469 616.193 202.309 579.712 202.973C560.81 203.318 543.331 212.353 525.269 217.938C507.207 223.523 485.485 224.955 471.359 212.39C456.136 198.847 457.874 170.941 474.66 159.391C469.503 159.777 464.347 160.164 459.191 160.55C437.968 162.14 416.745 163.73 395.523 165.321C401.325 167.673 407.503 170.332 410.829 175.636C414.155 180.94 412.63 189.618 406.571 191.194C384.005 197.064 360.9 186.367 339.241 177.734C317.582 169.1 291.483 162.759 272.17 175.822C228.642 205.261 171.138 200.373 119.297 191.789C106.86 189.73 91.8988 185.199 89.3129 172.861C65.5091 177.342 41.2345 179.317 17.0194 178.743C11.1085 178.603 4.13074 177.673 1.36829 172.445C-2.21105 165.672 4.21429 157.987 10.4718 153.567C29.5808 140.071 52.9112 132.645 76.306 132.613C82.9697 132.604 87.4187 125.641 89.1151 119.196C90.8115 112.752 91.2869 105.581 95.614 100.514C80.8995 98.3049 65.3112 102.797 54.0283 112.497C51.9342 114.297 48.3994 112.49 47.5204 109.872C46.6414 107.254 47.547 104.406 48.4767 101.806C53.6828 87.245 60.2101 72.451 72.0422 62.4953C83.8742 52.5396 102.361 48.9485 114.834 58.0882C118.747 60.9554 125.391 64.6358 134.765 69.1294C144.377 67.6759 151.524 66.5188 156.206 65.6581C170.385 63.0516 183.533 56.6122 196.386 50.0815C241.174 27.3248 287.096 1.98918 337.314 0.559838C385.355 -0.807542 431.41 20.1677 471.548 46.6001ZM522.372 86.0507L526.878 97.401C527.098 97.9573 527.337 98.539 527.803 98.9154C528.367 99.372 529.141 99.433 529.86 99.5365C535.368 100.33 539.684 104.512 543.588 108.478C548.589 113.558 553.589 118.638 558.59 123.718C560.088 125.241 562.578 123.595 564.013 122.012C567.237 118.454 570.522 114.804 572.384 110.378C574.245 105.952 574.447 100.524 571.672 96.6052C570.023 94.2766 567.511 92.7063 564.937 91.4756C560.688 89.4441 556.078 88.1699 551.389 87.7307C546.817 87.3024 542.212 87.6624 537.62 87.6284C532.503 87.5906 527.389 87.0615 522.372 86.0507Z" fill="white"/>
    <path fill-rule="evenodd" clip-rule="evenodd" d="M89.3129 172.861C65.5091 177.342 41.2345 179.317 17.0194 178.743C10.0509 168.588 85.4593 149.877 88.1936 162.212C90.3557 171.966 90.4547 178.309 89.3129 172.861Z" fill="#E7EAEE"/>
    <path fill-rule="evenodd" clip-rule="evenodd" d="M454.499 139.961C457.043 139.689 467.152 137.211 477.765 138.36C483.469 135.431 510.802 137.732 527.118 140.928C537.59 142.98 564.133 144.343 573.772 149.26C590.503 157.794 590.887 163.07 588.369 164.2C581.218 167.41 572.603 168.992 567.972 169.077C559.634 169.228 542.861 161.522 524.462 156.694C516.245 154.538 510.207 152.707 505.449 150.93L506.225 150.59C495.933 155.236 485.286 155.977 474.66 159.391C448.281 161.368 421.902 163.344 395.523 165.321C401.325 167.673 314.029 135.889 339.241 131.252C340.795 130.966 342.509 130.793 344.366 130.715C367.977 129.725 414.891 144.194 454.499 139.961Z" fill="#E7EAEE"/>
    <path fill-rule="evenodd" clip-rule="evenodd" d="M218.917 100.724C219.239 101.299 218.996 102.064 218.512 102.512C218.029 102.959 217.365 103.153 216.718 103.274C211.949 104.17 206.739 101.568 204.588 97.2184C204.349 96.7335 204.14 96.201 204.213 95.665C204.286 95.129 204.736 94.6103 205.276 94.6425C206.665 96.1741 208.073 97.723 209.802 98.8565C211.53 99.9901 213.643 100.681 215.676 100.307C216.83 100.096 218.344 99.7008 218.917 100.724Z" fill="#00160A"/>
    <path fill-rule="evenodd" clip-rule="evenodd" d="M222.043 160.06C222.11 158.717 223.793 158.156 225.137 158.106C231.156 157.883 236.762 160.834 242.322 163.152C247.882 165.471 254.357 167.181 259.786 164.572C260.92 164.027 262.107 163.284 263.337 163.547C261.297 167.503 256.422 169.299 251.978 169.055C247.534 168.811 243.369 166.931 239.271 165.194C235.174 163.456 230.863 161.803 226.419 162.051C225.507 162.102 224.574 162.231 223.695 161.983C222.817 161.734 221.998 160.972 222.043 160.06Z" fill="#00160A"/>
    <path fill-rule="evenodd" clip-rule="evenodd" d="M232.582 171.326C228.429 170.114 223.574 170.721 220.163 168.06C219.747 167.735 219.335 167.309 219.319 166.78C219.296 166.04 220.094 165.498 220.835 165.479C221.576 165.46 222.271 165.798 222.966 166.053C225.506 166.986 228.301 166.861 230.952 167.401C234.928 168.211 238.43 170.478 242.176 172.041C245.921 173.603 250.414 174.403 253.901 172.328C255.309 171.491 257.158 170.241 258.325 171.39C254.527 175.715 248.099 177.517 242.607 175.797C239.109 174.701 236.1 172.352 232.582 171.326Z" fill="#00160A"/>
    <path fill-rule="evenodd" clip-rule="evenodd" d="M112.912 127.537C112.245 126.683 112.25 125.444 112.676 124.448C113.102 123.452 113.884 122.654 114.692 121.932C118.53 118.504 123.84 116.184 128.821 117.472C132.555 118.438 135.508 121.236 138.122 124.072C139.241 125.285 140.396 127.024 139.558 128.446C138.664 129.966 136.417 129.644 134.716 129.183C129.433 127.751 123.835 126.907 118.497 128.115C116.561 128.553 114.135 129.101 112.912 127.537Z" fill="#00160A"/>
    <path fill-rule="evenodd" clip-rule="evenodd" d="M199.424 179C200.16 179.445 200.059 180.633 199.445 181.236C198.832 181.839 197.928 182.012 197.081 182.157C192.328 182.972 187.576 183.787 182.824 184.602C181.832 184.773 180.723 184.919 179.896 184.346C179.068 183.772 179.045 182.178 180.03 181.97C185.987 180.712 191.992 179.678 198.028 178.871C198.501 178.807 199.016 178.754 199.424 179Z" fill="#00160A"/>
    <path fill-rule="evenodd" clip-rule="evenodd" d="M187.298 129.348C186.252 129.736 185.098 128.726 184.957 127.62C184.816 126.514 185.388 125.444 186.05 124.547C189.132 120.373 194.625 118.236 199.774 118.878C204.923 119.52 209.6 122.782 212.305 127.21C212.722 127.893 213.109 128.678 212.95 129.463C212.779 130.313 211.985 130.928 211.144 131.139C210.303 131.349 209.418 131.228 208.563 131.081C205.008 130.466 201.542 129.401 197.984 128.803C194.426 128.204 190.681 128.093 187.298 129.348Z" fill="#00160A"/>
    <path fill-rule="evenodd" clip-rule="evenodd" d="M120.105 100.786C120.509 99.6014 122.222 99.8945 123.45 100.138C127.277 100.897 131.02 98.7638 134.34 96.7144C134.783 96.4408 135.373 96.9606 135.364 97.4814C135.354 98.0022 134.979 98.4362 134.613 98.8065C131.303 102.152 126.353 104.44 121.877 102.984C120.877 102.659 119.765 101.781 120.105 100.786Z" fill="#00160A"/>
    <path fill-rule="evenodd" clip-rule="evenodd" d="M253.037 121.06C251.746 120.814 251.076 119.247 251.318 117.955C251.559 116.663 252.437 115.597 253.265 114.576C256.391 110.72 259.241 106.618 261.487 102.191C263.418 98.3824 264.898 94.3438 267.07 90.6674C273.283 80.1482 285.335 73.3475 297.552 73.4667C292.656 69.9623 286.869 67.8895 281.007 66.5179C262.873 62.2752 243.281 64.5773 226.625 72.9076C223.993 74.2243 221.425 75.6886 218.679 76.7503C217.413 77.24 216.012 77.6444 214.715 77.2431C213.418 76.8418 212.4 75.3142 213.003 74.0978C213.351 73.3966 214.1 73.0045 214.802 72.6582C221.898 69.1567 229.024 65.6431 236.545 63.185C253.371 57.6861 271.962 57.7415 288.756 63.3406C294.39 65.2194 300.279 68.1384 302.719 73.5538C303.093 74.3847 303.128 75.7129 302.226 75.8487C292.55 77.3071 282.703 80.656 276.023 87.8081C267.373 97.0714 265.278 111.294 255.896 119.817C255.098 120.543 254.097 121.262 253.037 121.06Z" fill="#00160A"/>
    <path fill-rule="evenodd" clip-rule="evenodd" d="M395.523 165.321C401.325 167.673 407.503 170.332 410.829 175.636C414.155 180.94 412.63 189.618 406.571 191.194C384.005 197.064 360.9 186.367 339.241 177.734C317.582 169.1 291.483 162.759 272.17 175.822C228.643 205.261 171.138 200.373 119.297 191.789C106.86 189.73 91.8988 185.199 89.3129 172.861C65.5091 177.342 41.2345 179.317 17.0194 178.743C11.1086 178.603 4.13074 177.673 1.36829 172.445C-2.21105 165.672 4.21429 157.987 10.4718 153.567C29.5808 140.071 52.9113 132.645 76.306 132.613C82.9697 132.604 87.4187 125.641 89.1151 119.196C90.8115 112.752 91.287 105.581 95.614 100.514C80.8995 98.3049 65.3112 102.797 54.0283 112.497C51.9342 114.297 48.3994 112.49 47.5204 109.872C46.6414 107.254 47.547 104.406 48.4767 101.806C53.6828 87.245 60.2101 72.451 72.0422 62.4953C83.8742 52.5396 96.9702 48.7608 114.753 56.8586C119.41 58.9792 126.061 62.7473 134.706 68.1628C144.261 67.3715 151.428 66.5366 156.206 65.6582C170.385 63.0516 183.533 56.6122 196.386 50.0815C241.174 27.3248 287.096 1.98918 337.314 0.559838C385.355 -0.807542 431.41 20.1677 471.548 46.6001C479.1 51.5729 486.683 56.8336 495.373 59.3309C504.063 61.8283 514.276 61.0645 520.968 54.9842C547.973 30.4473 591.462 26.3447 622.579 45.3985C653.697 64.4523 669.813 105.053 660.235 140.261C650.657 175.469 616.193 202.309 579.712 202.973C560.81 203.318 543.331 212.353 525.269 217.938C507.207 223.523 485.485 224.955 471.36 212.39C456.136 198.847 457.874 170.941 474.66 159.391C448.281 161.368 421.902 163.344 395.523 165.321ZM548.217 116.655C534.905 103.265 515.045 96.7173 496.38 99.5654C505.417 96.7573 515.101 96.0497 524.451 97.5141C497.947 59.241 455.176 35.3356 411.581 19.0039C390.396 11.0672 368.333 4.54318 345.715 4.04383C316.27 3.39376 287.573 12.964 260.375 24.2663C230.525 36.671 201.65 51.2826 172.808 65.879C181.707 65.4242 190.727 69.3346 196.478 76.141C172.32 66.1791 143.705 67.7151 120.752 80.2057C120.862 75.6423 124.509 71.4125 129.006 70.6318C115.872 59.0595 95.6944 56.2507 79.8991 63.7958C64.1038 71.341 53.6085 88.8018 54.3565 106.291C67.6959 95.2586 86.9356 91.8471 103.255 97.6201C93.5415 113.828 88.5269 132.816 88.9709 151.707C94.0752 149.556 100.365 150.568 104.538 154.21C99.8754 154.711 95.213 155.213 90.5506 155.714C90.7476 157.842 90.9447 159.969 91.1417 162.096C96.0752 161.369 101.009 160.642 105.942 159.915C102.767 163.567 98.2901 166.063 93.5142 166.844C92.9145 172.922 97.1331 178.656 102.426 181.703C107.719 184.749 113.935 185.657 119.982 186.509C135.054 188.632 150.126 190.756 165.199 192.879C161.703 188.937 161.131 182.589 158.849 178.201C155.893 172.517 151.625 170.202 149.485 162.661C148.747 160.059 147.046 156.396 149.427 154.742C150.427 154.047 151.729 154.021 152.947 154.02C157.923 154.014 162.898 154.009 167.874 154.004C169.481 154.002 171.163 154.018 172.584 154.769C176.89 157.047 175.53 163.774 172.314 167.433C169.098 171.092 164.5 174.014 163.401 178.76C162.273 183.635 165.555 188.689 169.914 191.147C174.273 193.604 179.46 194.021 184.461 194.192C195.002 194.552 205.571 194.063 216.033 192.732C242.372 189.381 270.432 178.649 282.657 155.08C281.918 161.021 278.813 166.635 274.174 170.419C293.364 163.35 315.094 163.43 334.232 170.638C352.381 177.474 369.601 190.675 388.849 188.306C388.024 187.637 387.704 186.481 386.879 185.812C384.634 183.991 381.884 182.657 379.639 180.836C386.501 183.346 393.364 185.856 400.226 188.367C399.447 187.225 400.226 186.074 398.775 184.328C397.323 182.582 394.153 179.467 392.284 176.729C397.482 178.242 402.037 181.849 404.7 186.561C406.921 186.017 409.142 185.474 411.363 184.931C400.087 169.71 384.498 157.721 366.893 150.731C358.352 147.339 347.763 143.279 346.695 134.151C365.893 152.692 393.406 160.601 420.09 161.166C446.774 161.731 473.102 155.668 499.103 149.641C493.15 146.632 487.783 142.47 483.387 137.454C512.59 153.816 545.263 163.947 578.599 166.978C576.708 163.773 574.818 160.568 572.927 157.363C577.062 157.48 580.926 160.617 581.892 164.64C583.966 163.823 586.04 163.006 588.113 162.19C585.229 159.362 582.344 156.534 579.46 153.706C584.1 152.587 589.306 156.166 589.924 160.899C591.866 159.889 593.468 158.24 594.421 156.27C590.972 153.659 587.523 151.048 584.074 148.437C589.302 148.331 594.55 150.08 598.669 153.303C593.796 141.456 577.308 141.173 566.355 134.53C559.071 130.111 554.224 122.697 548.217 116.655ZM523.422 82.6166C529.937 84.1959 536.759 82.9727 543.463 82.9927C550.408 83.0133 557.326 84.3911 563.834 86.8176C567.851 88.3155 571.867 90.3279 574.479 93.7279C578.619 99.1175 578.258 106.935 575.37 113.087C572.482 119.239 567.483 124.102 562.591 128.819C572.861 133.401 583.132 137.983 593.402 142.564C596.304 143.859 599.441 145.378 600.767 148.265C603.062 153.258 598.608 158.734 594.033 161.777C579.761 171.27 560.351 172.434 545.046 164.716C535.227 159.764 524.342 157.402 513.592 155.087C507.723 153.823 501.61 152.56 495.779 153.99C491.641 155.005 487.739 157.358 483.481 157.213C479.676 157.084 476.717 160.37 474.488 163.456C467.151 173.61 461.102 186.586 465.398 198.355C468.351 206.446 475.836 212.275 483.994 215.041C492.151 217.807 500.967 217.885 509.564 217.338C520.323 216.653 531.283 214.946 540.731 209.753C546.883 206.372 552.389 201.527 559.193 199.802C567.358 197.732 575.96 200.509 584.36 199.896C591.05 199.407 597.38 196.789 603.505 194.055C618.466 187.378 633.429 179.495 644.041 167.013C659.866 148.401 663.628 121.126 656.068 97.8952C648.507 74.6641 630.639 55.5637 609.255 43.7501C603.376 40.502 597.185 37.7422 590.667 36.1212C575.019 32.2297 557.892 35.2941 544.217 43.838C537.177 48.237 531.06 53.9688 524.161 58.5869C517.262 63.2051 509.153 66.7622 500.89 65.9554C507.258 72.9924 514.198 80.3808 523.422 82.6166ZM30.9026 146.246C21.3176 149.982 11.7269 154.941 5.65215 163.243C8.44718 161.703 11.9568 161.532 14.8883 162.794C12.7513 163.85 10.6144 164.905 8.47741 165.961C7.28028 166.553 6.04282 167.176 5.21138 168.221C4.37994 169.266 4.07927 170.861 4.88421 171.926C5.68916 172.992 7.72495 172.894 8.11434 171.617C9.54306 166.93 15.0602 163.935 19.7686 165.289C16.2323 167.303 12.3708 169.731 11.3923 173.681C11.9211 175.461 14.5271 175.754 16.0588 174.704C17.5905 173.655 18.3549 171.836 19.2357 170.202C20.1166 168.568 21.3959 166.894 23.2331 166.625C23.6208 166.569 24.0639 166.598 24.3332 166.883C24.8025 167.379 24.4151 168.191 23.9735 168.712C22.973 169.892 21.6962 170.926 21.2043 172.394C20.7124 173.861 21.5914 175.912 23.1361 175.818C44.8257 174.493 66.4743 172.499 88.041 169.84C88.8204 168.153 86.4526 166.782 84.6103 166.532C79.9342 165.898 75.1238 166.272 70.602 167.622C71.4372 164.843 74.2441 163.023 77.0989 162.502C79.9537 161.98 82.8834 162.516 85.7356 163.051C85.7579 161.048 85.384 159.042 84.6418 157.181C80.1068 157.086 75.6118 155.571 71.9442 152.902C75.0098 151.755 78.571 152.016 81.4364 153.598C82.8046 154.354 83.8242 152.143 83.8468 150.58C83.9202 145.501 83.9936 140.422 84.067 135.343C65.8996 135.939 47.8382 139.643 30.9026 146.246ZM529.86 99.5365C535.368 100.33 539.684 104.512 543.588 108.478C548.589 113.558 553.59 118.638 558.59 123.718C560.089 125.241 562.578 123.595 564.013 122.012C567.237 118.454 570.522 114.804 572.384 110.378C574.246 105.952 574.447 100.524 571.672 96.6052C570.023 94.2767 567.511 92.7064 564.937 91.4756C560.688 89.4441 556.078 88.1699 551.389 87.7307C546.817 87.3024 542.212 87.6624 537.62 87.6284C532.503 87.5906 527.389 87.0615 522.372 86.0507C523.874 89.8341 525.376 93.6176 526.878 97.401C527.098 97.9573 527.337 98.539 527.803 98.9154C528.367 99.372 529.141 99.433 529.86 99.5365Z" fill="#00160A"/>
    <path d="M434.269 27.4772C471.764 42.7289 499.292 68.8094 510.572 80.7113L485.903 90.7434L460.809 95.6429L439.067 97.5185L416.68 94.8674L377.872 84.6065L363.363 79.8444L347.457 70.7128L333.023 60.403L324.792 49.5499L313.876 25.644L308.868 7.352C346.573 -0.572658 378.38 4.7431 434.269 27.4772Z" fill="#DE8D43"/>
    <path d="M422.759 161.182C441.967 161.657 467.783 156.745 484.18 152.841L471.928 138.068L459.542 129.329L448.236 123.039L435.483 119.04L412 115.174L402.996 114.229L392.176 115.309L381.866 117.384L374.781 121.257L363.075 131.54L355.505 141.442C373.979 154.878 386.491 160.284 422.759 161.182Z" fill="#97704C"/>
    <path d="M504.191 217.724C521.54 217.031 530.27 214.023 536.782 211.933L531.62 203.71L525.83 198.653L520.408 195.052L514.041 192.854L502.034 190.91L497.387 190.488L491.623 191.314L486.046 192.73L482.015 195.176L475.042 201.553L470.59 206.891C479.193 214.675 485.403 218.475 504.191 217.724Z" fill="#97704C"/>
    <path d="M47.1962 174.178C56.3237 173.412 67.7259 172.755 71.1829 171.796L62.1587 167.802L58.9663 165.113L55.9962 163.175L52.5433 161.94L46.0698 160.738L43.5699 160.443L40.4923 160.767L37.5253 161.397L35.4051 162.581L31.7737 165.729L28.3771 175.346C34.2838 175.209 37.3746 175.003 47.1962 174.178Z" fill="#97704C"/>
    <path d="M640.394 68.9898C652.872 83.7259 658.132 103.881 660.269 111.406L647.623 110.193L635.933 106.716L626.327 102.702L617.45 96.6325L603.314 83.7158L598.234 78.4953L593.529 71.1188L589.707 63.5698L588.627 57.1626L589.298 44.6441L591.225 35.8048C608.915 40.7905 621.795 47.0243 640.394 68.9898Z" fill="#DE8D43"/>
    <path d="M157.692 86.3271C147.826 76.4613 146.898 72.025 147.355 70.8832C169.528 66.98 184.347 71.9277 190.285 73.7547L200.943 77.0053L205.289 78.0401L209.636 78.4541L214.501 78.2232L218.537 76.9259C240.879 64.2412 256.121 64.4032 261.146 64.4032C259.319 72.3963 257.889 86.6115 254.98 93.1785C253.017 97.6079 239.222 113.047 209.076 109.622C178.931 106.196 170.024 98.6595 157.692 86.3271Z" fill="#DE8D43"/>
</svg>
